<svg width="702" height="166" viewBox="0 0 702 166" fill="none" xmlns="http://www.w3.org/2000/svg">
<g filter="url(#filter0_d_4_134)">
<rect x="24" y="22.9308" width="654" height="117" rx="16" fill="white"/>
</g>
<path d="M276.076 84.9308C275.86 84.9308 275.68 84.8588 275.536 84.7148C275.392 84.5468 275.32 84.3548 275.32 84.1388C275.32 84.0188 275.344 83.9108 275.392 83.8148L283.708 65.1668H272.944C272.68 65.1668 272.452 65.0828 272.26 64.9148C272.092 64.7228 272.008 64.4948 272.008 64.2308V60.6308C272.008 60.3668 272.092 60.1508 272.26 59.9828C272.452 59.8148 272.68 59.7308 272.944 59.7308H289.756C290.044 59.7308 290.272 59.8148 290.44 59.9828C290.608 60.1508 290.692 60.3668 290.692 60.6308V63.8348C290.692 64.3388 290.56 64.8788 290.296 65.4548L281.98 84.0668C281.716 84.6428 281.296 84.9308 280.72 84.9308H276.076ZM308.845 85.2908C306.541 85.2908 304.597 84.9428 303.013 84.2468C301.429 83.5508 300.241 82.6028 299.449 81.4028C298.681 80.2028 298.297 78.8588 298.297 77.3708C298.297 76.0988 298.609 74.9588 299.233 73.9508C299.881 72.9188 300.733 72.1148 301.789 71.5388C300.949 70.9868 300.301 70.2908 299.845 69.4508C299.413 68.6108 299.197 67.6508 299.197 66.5708C299.197 65.2028 299.545 63.9788 300.241 62.8988C300.961 61.7948 302.041 60.9308 303.481 60.3068C304.921 59.6828 306.709 59.3708 308.845 59.3708C311.989 59.3708 314.365 60.0308 315.973 61.3508C317.605 62.6708 318.421 64.3988 318.421 66.5348C318.421 68.7188 317.581 70.3868 315.901 71.5388C316.981 72.0668 317.833 72.8468 318.457 73.8788C319.105 74.9108 319.429 76.0868 319.429 77.4068C319.429 78.8948 319.033 80.2388 318.241 81.4388C317.449 82.6148 316.249 83.5508 314.641 84.2468C313.057 84.9428 311.125 85.2908 308.845 85.2908ZM308.845 69.7388C309.901 69.7148 310.765 69.4388 311.437 68.9108C312.109 68.3828 312.445 67.6988 312.445 66.8588C312.445 65.9948 312.109 65.2988 311.437 64.7708C310.765 64.2428 309.901 63.9788 308.845 63.9788C307.789 63.9788 306.925 64.2428 306.253 64.7708C305.581 65.2988 305.245 65.9948 305.245 66.8588C305.245 67.7228 305.581 68.4188 306.253 68.9468C306.925 69.4748 307.789 69.7388 308.845 69.7388ZM308.845 80.6828C310.021 80.6828 310.993 80.3828 311.761 79.7828C312.529 79.1828 312.913 78.3788 312.913 77.3708C312.913 76.3628 312.529 75.5708 311.761 74.9948C310.993 74.3948 310.021 74.0948 308.845 74.0948C307.669 74.0948 306.685 74.3948 305.893 74.9948C305.125 75.5708 304.741 76.3628 304.741 77.3708C304.741 78.3788 305.125 79.1828 305.893 79.7828C306.685 80.3828 307.669 80.6828 308.845 80.6828Z" fill="#EC5863"/>
<path d="M251.221 109.041C250.173 109.041 249.351 108.788 248.757 108.282C248.171 107.768 247.859 107.028 247.822 106.06C247.815 105.862 247.811 105.539 247.811 105.092C247.811 104.637 247.815 104.307 247.822 104.102C247.859 103.148 248.178 102.415 248.779 101.902C249.381 101.381 250.195 101.121 251.221 101.121C251.867 101.121 252.446 101.231 252.959 101.451C253.473 101.663 253.876 101.971 254.169 102.375C254.47 102.771 254.624 103.236 254.631 103.772V103.794C254.631 103.852 254.606 103.904 254.554 103.948C254.51 103.984 254.459 104.003 254.4 104.003H252.915C252.82 104.003 252.747 103.984 252.695 103.948C252.644 103.904 252.6 103.827 252.563 103.717C252.461 103.343 252.299 103.082 252.079 102.936C251.859 102.782 251.57 102.705 251.21 102.705C250.345 102.705 249.898 103.189 249.868 104.157C249.861 104.355 249.857 104.659 249.857 105.07C249.857 105.48 249.861 105.792 249.868 106.005C249.898 106.973 250.345 107.457 251.21 107.457C251.57 107.457 251.863 107.38 252.09 107.226C252.318 107.064 252.475 106.804 252.563 106.445C252.593 106.335 252.633 106.261 252.684 106.225C252.736 106.181 252.813 106.159 252.915 106.159H254.4C254.466 106.159 254.521 106.181 254.565 106.225C254.617 106.269 254.639 106.324 254.631 106.39C254.624 106.925 254.47 107.394 254.169 107.798C253.876 108.194 253.473 108.502 252.959 108.722C252.446 108.934 251.867 109.041 251.221 109.041ZM263.004 109.041C261.97 109.041 261.156 108.788 260.562 108.282C259.968 107.776 259.653 107.031 259.616 106.049C259.609 105.836 259.605 105.521 259.605 105.103C259.605 104.677 259.609 104.358 259.616 104.146C259.653 103.178 259.972 102.433 260.573 101.913C261.182 101.385 261.992 101.121 263.004 101.121C264.016 101.121 264.826 101.385 265.435 101.913C266.044 102.433 266.363 103.178 266.392 104.146C266.407 104.571 266.414 104.89 266.414 105.103C266.414 105.308 266.407 105.623 266.392 106.049C266.355 107.031 266.04 107.776 265.446 108.282C264.852 108.788 264.038 109.041 263.004 109.041ZM263.004 107.457C263.407 107.457 263.726 107.336 263.961 107.094C264.203 106.852 264.331 106.481 264.346 105.983C264.361 105.557 264.368 105.257 264.368 105.081C264.368 104.89 264.361 104.589 264.346 104.179C264.331 103.68 264.203 103.31 263.961 103.068C263.719 102.826 263.4 102.705 263.004 102.705C262.608 102.705 262.289 102.826 262.047 103.068C261.812 103.31 261.684 103.68 261.662 104.179C261.655 104.384 261.651 104.685 261.651 105.081C261.651 105.469 261.655 105.77 261.662 105.983C261.684 106.481 261.812 106.852 262.047 107.094C262.282 107.336 262.601 107.457 263.004 107.457ZM274.993 109.041C273.959 109.041 273.149 108.788 272.562 108.282C271.983 107.776 271.693 107.013 271.693 105.994V101.506C271.693 101.425 271.719 101.359 271.77 101.308C271.829 101.256 271.895 101.231 271.968 101.231H273.387C273.468 101.231 273.534 101.256 273.585 101.308C273.644 101.359 273.673 101.425 273.673 101.506V105.983C273.673 106.459 273.783 106.819 274.003 107.061C274.23 107.295 274.557 107.413 274.982 107.413C275.4 107.413 275.723 107.292 275.95 107.05C276.177 106.808 276.291 106.452 276.291 105.983V101.506C276.291 101.425 276.317 101.359 276.368 101.308C276.427 101.256 276.493 101.231 276.566 101.231H277.996C278.077 101.231 278.143 101.256 278.194 101.308C278.245 101.359 278.271 101.425 278.271 101.506V105.994C278.271 107.013 277.978 107.776 277.391 108.282C276.812 108.788 276.012 109.041 274.993 109.041ZM284.075 108.931C284.001 108.931 283.935 108.905 283.877 108.854C283.825 108.795 283.8 108.729 283.8 108.656V101.506C283.8 101.425 283.825 101.359 283.877 101.308C283.935 101.256 284.001 101.231 284.075 101.231H285.241C285.424 101.231 285.549 101.3 285.615 101.44L288.299 105.664V101.506C288.299 101.425 288.324 101.359 288.376 101.308C288.434 101.256 288.5 101.231 288.574 101.231H289.894C289.974 101.231 290.04 101.256 290.092 101.308C290.143 101.359 290.169 101.425 290.169 101.506V108.645C290.169 108.725 290.143 108.795 290.092 108.854C290.04 108.905 289.974 108.931 289.894 108.931H288.717C288.555 108.931 288.434 108.861 288.354 108.722L285.67 104.652V108.656C285.67 108.729 285.644 108.795 285.593 108.854C285.541 108.905 285.475 108.931 285.395 108.931H284.075ZM297.745 108.931C297.672 108.931 297.606 108.905 297.547 108.854C297.496 108.795 297.47 108.729 297.47 108.656V102.958H295.512C295.439 102.958 295.373 102.932 295.314 102.881C295.263 102.822 295.237 102.756 295.237 102.683V101.506C295.237 101.425 295.263 101.359 295.314 101.308C295.373 101.256 295.439 101.231 295.512 101.231H301.43C301.511 101.231 301.577 101.256 301.628 101.308C301.679 101.359 301.705 101.425 301.705 101.506V102.683C301.705 102.763 301.679 102.829 301.628 102.881C301.577 102.932 301.511 102.958 301.43 102.958H299.472V108.656C299.472 108.729 299.446 108.795 299.395 108.854C299.344 108.905 299.278 108.931 299.197 108.931H297.745ZM307.05 108.931C306.976 108.931 306.91 108.905 306.852 108.854C306.8 108.795 306.775 108.729 306.775 108.656V101.506C306.775 101.425 306.8 101.359 306.852 101.308C306.91 101.256 306.976 101.231 307.05 101.231H310.042C311.002 101.231 311.75 101.451 312.286 101.891C312.828 102.323 313.1 102.939 313.1 103.739C313.1 104.252 312.979 104.688 312.737 105.048C312.495 105.407 312.161 105.682 311.736 105.873L313.243 108.579C313.265 108.623 313.276 108.663 313.276 108.7C313.276 108.758 313.25 108.813 313.199 108.865C313.155 108.909 313.103 108.931 313.045 108.931H311.582C311.369 108.931 311.219 108.832 311.131 108.634L309.877 106.214H308.755V108.656C308.755 108.736 308.725 108.802 308.667 108.854C308.615 108.905 308.549 108.931 308.469 108.931H307.05ZM310.02 104.652C310.357 104.652 310.614 104.571 310.79 104.41C310.966 104.241 311.054 104.01 311.054 103.717C311.054 103.423 310.966 103.192 310.79 103.024C310.621 102.848 310.364 102.76 310.02 102.76H308.755V104.652H310.02ZM318.725 108.931C318.652 108.931 318.586 108.905 318.527 108.854C318.476 108.795 318.45 108.729 318.45 108.656V101.506C318.45 101.425 318.476 101.359 318.527 101.308C318.586 101.256 318.652 101.231 318.725 101.231H320.199C320.28 101.231 320.346 101.256 320.397 101.308C320.456 101.359 320.485 101.425 320.485 101.506V108.656C320.485 108.736 320.456 108.802 320.397 108.854C320.346 108.905 320.28 108.931 320.199 108.931H318.725ZM326.361 108.931C326.288 108.931 326.222 108.905 326.163 108.854C326.112 108.795 326.086 108.729 326.086 108.656V101.506C326.086 101.425 326.112 101.359 326.163 101.308C326.222 101.256 326.288 101.231 326.361 101.231H331.498C331.579 101.231 331.645 101.256 331.696 101.308C331.748 101.359 331.773 101.425 331.773 101.506V102.54C331.773 102.613 331.748 102.679 331.696 102.738C331.645 102.789 331.579 102.815 331.498 102.815H327.989V104.3H331.256C331.337 104.3 331.403 104.329 331.454 104.388C331.506 104.439 331.531 104.505 331.531 104.586V105.543C331.531 105.616 331.506 105.682 331.454 105.741C331.403 105.792 331.337 105.818 331.256 105.818H327.989V107.347H331.586C331.667 107.347 331.733 107.372 331.784 107.424C331.836 107.475 331.861 107.541 331.861 107.622V108.656C331.861 108.729 331.836 108.795 331.784 108.854C331.733 108.905 331.667 108.931 331.586 108.931H326.361ZM340.053 109.041C339.356 109.041 338.759 108.938 338.26 108.733C337.761 108.527 337.384 108.26 337.127 107.93C336.878 107.592 336.746 107.226 336.731 106.83C336.731 106.771 336.753 106.72 336.797 106.676C336.848 106.624 336.907 106.599 336.973 106.599H338.359C338.447 106.599 338.517 106.617 338.568 106.654C338.627 106.683 338.685 106.731 338.744 106.797C338.839 106.987 338.993 107.145 339.206 107.27C339.419 107.394 339.701 107.457 340.053 107.457C340.471 107.457 340.79 107.391 341.01 107.259C341.23 107.127 341.34 106.947 341.34 106.72C341.34 106.558 341.281 106.426 341.164 106.324C341.054 106.221 340.878 106.129 340.636 106.049C340.394 105.968 340.035 105.876 339.558 105.774C338.678 105.59 338.018 105.323 337.578 104.971C337.145 104.611 336.929 104.102 336.929 103.442C336.929 102.994 337.054 102.595 337.303 102.243C337.552 101.891 337.908 101.616 338.37 101.418C338.832 101.22 339.371 101.121 339.987 101.121C340.625 101.121 341.179 101.231 341.648 101.451C342.117 101.671 342.473 101.949 342.715 102.287C342.964 102.617 343.096 102.943 343.111 103.266C343.111 103.332 343.089 103.387 343.045 103.431C343.001 103.475 342.946 103.497 342.88 103.497H341.428C341.34 103.497 341.267 103.482 341.208 103.453C341.157 103.423 341.109 103.376 341.065 103.31C341.021 103.141 340.9 102.998 340.702 102.881C340.511 102.763 340.273 102.705 339.987 102.705C339.657 102.705 339.404 102.763 339.228 102.881C339.052 102.998 338.964 103.17 338.964 103.398C338.964 103.552 339.012 103.68 339.107 103.783C339.21 103.885 339.371 103.981 339.591 104.069C339.818 104.149 340.141 104.234 340.559 104.322C341.241 104.446 341.784 104.604 342.187 104.795C342.598 104.978 342.898 105.22 343.089 105.521C343.28 105.814 343.375 106.184 343.375 106.632C343.375 107.123 343.232 107.552 342.946 107.919C342.667 108.278 342.275 108.557 341.769 108.755C341.27 108.945 340.698 109.041 340.053 109.041Z" fill="black"/>
<path d="M107.697 84.9308C107.433 84.9308 107.205 84.8468 107.013 84.6788C106.845 84.5108 106.761 84.2948 106.761 84.0308V81.4748C106.761 80.7548 107.061 80.1668 107.661 79.7108L111.405 76.0388C113.589 74.3588 115.245 73.0508 116.373 72.1148C117.501 71.1788 118.353 70.3268 118.929 69.5588C119.505 68.7908 119.793 68.0588 119.793 67.3628C119.793 65.4668 118.857 64.5188 116.985 64.5188C116.001 64.5188 115.245 64.8188 114.717 65.4188C114.189 65.9948 113.841 66.7268 113.673 67.6148C113.529 68.1668 113.121 68.4428 112.449 68.4428H107.949C107.733 68.4428 107.553 68.3708 107.409 68.2268C107.265 68.0828 107.193 67.9028 107.193 67.6868C107.241 66.1508 107.661 64.7468 108.453 63.4748C109.269 62.1788 110.409 61.1588 111.873 60.4148C113.361 59.6468 115.065 59.2628 116.985 59.2628C119.001 59.2628 120.729 59.5868 122.169 60.2348C123.609 60.8828 124.701 61.7948 125.445 62.9708C126.189 64.1468 126.561 65.5148 126.561 67.0748C126.561 68.7548 126.033 70.2908 124.977 71.6828C123.945 73.0508 122.361 74.5388 120.225 76.1468L116.913 79.4948H126.165C126.429 79.4948 126.645 79.5788 126.813 79.7468C127.005 79.9148 127.101 80.1308 127.101 80.3948V84.0308C127.101 84.2948 127.005 84.5108 126.813 84.6788C126.645 84.8468 126.429 84.9308 126.165 84.9308H107.697ZM136.763 84.9308C136.499 84.9308 136.283 84.8468 136.115 84.6788C135.947 84.5108 135.863 84.2948 135.863 84.0308V67.1108C135.863 66.8468 135.947 66.6308 136.115 66.4628C136.283 66.2948 136.499 66.2108 136.763 66.2108H140.687C140.951 66.2108 141.167 66.2948 141.335 66.4628C141.503 66.6308 141.587 66.8468 141.587 67.1108V68.3348C142.139 67.6148 142.871 67.0268 143.783 66.5708C144.719 66.0908 145.763 65.8508 146.915 65.8508C149.555 65.8508 151.379 66.8828 152.387 68.9468C152.963 68.0348 153.767 67.2908 154.799 66.7148C155.831 66.1388 156.935 65.8508 158.111 65.8508C160.079 65.8508 161.675 66.5228 162.899 67.8668C164.147 69.1868 164.771 71.1668 164.771 73.8068V84.0308C164.771 84.2708 164.687 84.4868 164.519 84.6788C164.351 84.8468 164.135 84.9308 163.871 84.9308H159.695C159.431 84.9308 159.203 84.8468 159.011 84.6788C158.843 84.5108 158.759 84.2948 158.759 84.0308V74.0588C158.759 72.8588 158.507 71.9948 158.003 71.4668C157.523 70.9388 156.863 70.6748 156.023 70.6748C155.255 70.6748 154.619 70.9508 154.115 71.5028C153.611 72.0308 153.359 72.8828 153.359 74.0588V84.0308C153.359 84.2708 153.275 84.4868 153.107 84.6788C152.939 84.8468 152.723 84.9308 152.459 84.9308H148.283C148.019 84.9308 147.803 84.8468 147.635 84.6788C147.467 84.5108 147.383 84.2948 147.383 84.0308V74.0588C147.383 72.8828 147.119 72.0308 146.591 71.5028C146.087 70.9508 145.439 70.6748 144.647 70.6748C143.879 70.6748 143.231 70.9508 142.703 71.5028C142.199 72.0308 141.947 72.8708 141.947 74.0228V84.0308C141.947 84.2708 141.863 84.4868 141.695 84.6788C141.527 84.8468 141.311 84.9308 141.047 84.9308H136.763Z" fill="#EC5863"/>
<path d="M113.269 109.041C112.235 109.041 111.425 108.788 110.838 108.282C110.259 107.776 109.969 107.013 109.969 105.994V101.506C109.969 101.425 109.995 101.359 110.046 101.308C110.105 101.256 110.171 101.231 110.244 101.231H111.663C111.744 101.231 111.81 101.256 111.861 101.308C111.92 101.359 111.949 101.425 111.949 101.506V105.983C111.949 106.459 112.059 106.819 112.279 107.061C112.507 107.295 112.833 107.413 113.258 107.413C113.676 107.413 113.999 107.292 114.226 107.05C114.454 106.808 114.567 106.452 114.567 105.983V101.506C114.567 101.425 114.593 101.359 114.644 101.308C114.703 101.256 114.769 101.231 114.842 101.231H116.272C116.353 101.231 116.419 101.256 116.47 101.308C116.522 101.359 116.547 101.425 116.547 101.506V105.994C116.547 107.013 116.254 107.776 115.667 108.282C115.088 108.788 114.289 109.041 113.269 109.041ZM124.947 109.041C124.25 109.041 123.653 108.938 123.154 108.733C122.655 108.527 122.278 108.26 122.021 107.93C121.772 107.592 121.64 107.226 121.625 106.83C121.625 106.771 121.647 106.72 121.691 106.676C121.742 106.624 121.801 106.599 121.867 106.599H123.253C123.341 106.599 123.411 106.617 123.462 106.654C123.521 106.683 123.579 106.731 123.638 106.797C123.733 106.987 123.887 107.145 124.1 107.27C124.313 107.394 124.595 107.457 124.947 107.457C125.365 107.457 125.684 107.391 125.904 107.259C126.124 107.127 126.234 106.947 126.234 106.72C126.234 106.558 126.175 106.426 126.058 106.324C125.948 106.221 125.772 106.129 125.53 106.049C125.288 105.968 124.929 105.876 124.452 105.774C123.572 105.59 122.912 105.323 122.472 104.971C122.039 104.611 121.823 104.102 121.823 103.442C121.823 102.994 121.948 102.595 122.197 102.243C122.446 101.891 122.802 101.616 123.264 101.418C123.726 101.22 124.265 101.121 124.881 101.121C125.519 101.121 126.073 101.231 126.542 101.451C127.011 101.671 127.367 101.949 127.609 102.287C127.858 102.617 127.99 102.943 128.005 103.266C128.005 103.332 127.983 103.387 127.939 103.431C127.895 103.475 127.84 103.497 127.774 103.497H126.322C126.234 103.497 126.161 103.482 126.102 103.453C126.051 103.423 126.003 103.376 125.959 103.31C125.915 103.141 125.794 102.998 125.596 102.881C125.405 102.763 125.167 102.705 124.881 102.705C124.551 102.705 124.298 102.763 124.122 102.881C123.946 102.998 123.858 103.17 123.858 103.398C123.858 103.552 123.906 103.68 124.001 103.783C124.104 103.885 124.265 103.981 124.485 104.069C124.712 104.149 125.035 104.234 125.453 104.322C126.135 104.446 126.678 104.604 127.081 104.795C127.492 104.978 127.792 105.22 127.983 105.521C128.174 105.814 128.269 106.184 128.269 106.632C128.269 107.123 128.126 107.552 127.84 107.919C127.561 108.278 127.169 108.557 126.663 108.755C126.164 108.945 125.592 109.041 124.947 109.041ZM133.715 108.931C133.642 108.931 133.576 108.905 133.517 108.854C133.466 108.795 133.44 108.729 133.44 108.656V101.506C133.44 101.425 133.466 101.359 133.517 101.308C133.576 101.256 133.642 101.231 133.715 101.231H138.852C138.933 101.231 138.999 101.256 139.05 101.308C139.101 101.359 139.127 101.425 139.127 101.506V102.54C139.127 102.613 139.101 102.679 139.05 102.738C138.999 102.789 138.933 102.815 138.852 102.815H135.343V104.3H138.61C138.691 104.3 138.757 104.329 138.808 104.388C138.859 104.439 138.885 104.505 138.885 104.586V105.543C138.885 105.616 138.859 105.682 138.808 105.741C138.757 105.792 138.691 105.818 138.61 105.818H135.343V107.347H138.94C139.021 107.347 139.087 107.372 139.138 107.424C139.189 107.475 139.215 107.541 139.215 107.622V108.656C139.215 108.729 139.189 108.795 139.138 108.854C139.087 108.905 139.021 108.931 138.94 108.931H133.715ZM144.81 108.931C144.737 108.931 144.671 108.905 144.612 108.854C144.561 108.795 144.535 108.729 144.535 108.656V101.506C144.535 101.425 144.561 101.359 144.612 101.308C144.671 101.256 144.737 101.231 144.81 101.231H147.802C148.763 101.231 149.511 101.451 150.046 101.891C150.589 102.323 150.86 102.939 150.86 103.739C150.86 104.252 150.739 104.688 150.497 105.048C150.255 105.407 149.922 105.682 149.496 105.873L151.003 108.579C151.025 108.623 151.036 108.663 151.036 108.7C151.036 108.758 151.011 108.813 150.959 108.865C150.915 108.909 150.864 108.931 150.805 108.931H149.342C149.13 108.931 148.979 108.832 148.891 108.634L147.637 106.214H146.515V108.656C146.515 108.736 146.486 108.802 146.427 108.854C146.376 108.905 146.31 108.931 146.229 108.931H144.81ZM147.78 104.652C148.118 104.652 148.374 104.571 148.55 104.41C148.726 104.241 148.814 104.01 148.814 103.717C148.814 103.423 148.726 103.192 148.55 103.024C148.382 102.848 148.125 102.76 147.78 102.76H146.515V104.652H147.78ZM159.082 109.041C158.385 109.041 157.787 108.938 157.289 108.733C156.79 108.527 156.412 108.26 156.156 107.93C155.906 107.592 155.774 107.226 155.76 106.83C155.76 106.771 155.782 106.72 155.826 106.676C155.877 106.624 155.936 106.599 156.002 106.599H157.388C157.476 106.599 157.545 106.617 157.597 106.654C157.655 106.683 157.714 106.731 157.773 106.797C157.868 106.987 158.022 107.145 158.235 107.27C158.447 107.394 158.73 107.457 159.082 107.457C159.5 107.457 159.819 107.391 160.039 107.259C160.259 107.127 160.369 106.947 160.369 106.72C160.369 106.558 160.31 106.426 160.193 106.324C160.083 106.221 159.907 106.129 159.665 106.049C159.423 105.968 159.063 105.876 158.587 105.774C157.707 105.59 157.047 105.323 156.607 104.971C156.174 104.611 155.958 104.102 155.958 103.442C155.958 102.994 156.082 102.595 156.332 102.243C156.581 101.891 156.937 101.616 157.399 101.418C157.861 101.22 158.4 101.121 159.016 101.121C159.654 101.121 160.207 101.231 160.677 101.451C161.146 101.671 161.502 101.949 161.744 102.287C161.993 102.617 162.125 102.943 162.14 103.266C162.14 103.332 162.118 103.387 162.074 103.431C162.03 103.475 161.975 103.497 161.909 103.497H160.457C160.369 103.497 160.295 103.482 160.237 103.453C160.185 103.423 160.138 103.376 160.094 103.31C160.05 103.141 159.929 102.998 159.731 102.881C159.54 102.763 159.302 102.705 159.016 102.705C158.686 102.705 158.433 102.763 158.257 102.881C158.081 102.998 157.993 103.17 157.993 103.398C157.993 103.552 158.04 103.68 158.136 103.783C158.238 103.885 158.4 103.981 158.62 104.069C158.847 104.149 159.17 104.234 159.588 104.322C160.27 104.446 160.812 104.604 161.216 104.795C161.626 104.978 161.927 105.22 162.118 105.521C162.308 105.814 162.404 106.184 162.404 106.632C162.404 107.123 162.261 107.552 161.975 107.919C161.696 108.278 161.304 108.557 160.798 108.755C160.299 108.945 159.727 109.041 159.082 109.041Z" fill="black"/>
<path d="M431.27 84.9308C431.03 84.9308 430.814 84.8468 430.622 84.6788C430.454 84.4868 430.37 84.2708 430.37 84.0308V66.8948L425.438 70.6748C425.27 70.8188 425.09 70.8908 424.898 70.8908C424.634 70.8908 424.394 70.7468 424.178 70.4588L422.054 67.6868C421.934 67.4948 421.874 67.3148 421.874 67.1468C421.874 66.8108 422.018 66.5588 422.306 66.3908L430.586 59.9828C430.85 59.8148 431.138 59.7308 431.45 59.7308H435.95C436.214 59.7308 436.43 59.8148 436.598 59.9828C436.766 60.1508 436.85 60.3668 436.85 60.6308V84.0308C436.85 84.2708 436.766 84.4868 436.598 84.6788C436.43 84.8468 436.214 84.9308 435.95 84.9308H431.27ZM456.436 85.2908C453.124 85.2668 450.616 84.3908 448.912 82.6628C447.208 80.9108 446.284 78.6188 446.14 75.7868C446.092 74.4908 446.068 73.3388 446.068 72.3308C446.068 71.2988 446.092 70.1108 446.14 68.7668C446.236 66.9668 446.668 65.3708 447.436 63.9788C448.228 62.5628 449.38 61.4468 450.892 60.6308C452.404 59.7908 454.252 59.3708 456.436 59.3708C459.676 59.3948 462.172 60.2708 463.924 61.9988C465.676 63.7268 466.624 65.9828 466.768 68.7668C466.816 70.1108 466.84 71.2988 466.84 72.3308C466.84 73.3388 466.816 74.4908 466.768 75.7868C466.6 78.6188 465.664 80.9108 463.96 82.6628C462.256 84.3908 459.748 85.2668 456.436 85.2908ZM456.436 80.0708C457.612 80.0708 458.488 79.6868 459.064 78.9188C459.664 78.1268 459.988 77.0228 460.036 75.6068C460.084 74.9108 460.108 73.7948 460.108 72.2588C460.108 70.7228 460.084 69.6308 460.036 68.9828C459.988 67.6148 459.676 66.5348 459.1 65.7428C458.524 64.9508 457.636 64.5428 456.436 64.5188C455.26 64.5428 454.372 64.9508 453.772 65.7428C453.196 66.5348 452.884 67.6148 452.836 68.9828C452.812 69.6308 452.8 70.7228 452.8 72.2588C452.8 73.7948 452.812 74.9108 452.836 75.6068C452.956 78.5828 454.156 80.0708 456.436 80.0708ZM475.367 87.6308C475.175 87.6308 475.007 87.5468 474.863 87.3788C474.719 87.2348 474.659 87.0548 474.683 86.8388L475.799 79.7828C475.847 79.4468 475.979 79.1588 476.195 78.9188C476.411 78.6788 476.711 78.5588 477.095 78.5588H481.307C481.499 78.5588 481.655 78.6308 481.775 78.7748C481.919 78.8948 481.991 79.0508 481.991 79.2428C481.991 79.4108 481.967 79.5428 481.919 79.6388L479.219 86.6228C479.075 86.9348 478.907 87.1748 478.715 87.3428C478.523 87.5348 478.247 87.6308 477.887 87.6308H475.367ZM500.513 85.2908C497.201 85.2668 494.693 84.3908 492.989 82.6628C491.285 80.9108 490.361 78.6188 490.217 75.7868C490.169 74.4908 490.145 73.3388 490.145 72.3308C490.145 71.2988 490.169 70.1108 490.217 68.7668C490.313 66.9668 490.745 65.3708 491.513 63.9788C492.305 62.5628 493.457 61.4468 494.969 60.6308C496.481 59.7908 498.329 59.3708 500.513 59.3708C503.753 59.3948 506.249 60.2708 508.001 61.9988C509.753 63.7268 510.701 65.9828 510.845 68.7668C510.893 70.1108 510.917 71.2988 510.917 72.3308C510.917 73.3388 510.893 74.4908 510.845 75.7868C510.677 78.6188 509.741 80.9108 508.037 82.6628C506.333 84.3908 503.825 85.2668 500.513 85.2908ZM500.513 80.0708C501.689 80.0708 502.565 79.6868 503.141 78.9188C503.741 78.1268 504.065 77.0228 504.113 75.6068C504.161 74.9108 504.185 73.7948 504.185 72.2588C504.185 70.7228 504.161 69.6308 504.113 68.9828C504.065 67.6148 503.753 66.5348 503.177 65.7428C502.601 64.9508 501.713 64.5428 500.513 64.5188C499.337 64.5428 498.449 64.9508 497.849 65.7428C497.273 66.5348 496.961 67.6148 496.913 68.9828C496.889 69.6308 496.877 70.7228 496.877 72.2588C496.877 73.7948 496.889 74.9108 496.913 75.6068C497.033 78.5828 498.233 80.0708 500.513 80.0708ZM530.021 85.2908C526.709 85.2668 524.201 84.3908 522.497 82.6628C520.793 80.9108 519.869 78.6188 519.725 75.7868C519.677 74.4908 519.653 73.3388 519.653 72.3308C519.653 71.2988 519.677 70.1108 519.725 68.7668C519.821 66.9668 520.253 65.3708 521.021 63.9788C521.813 62.5628 522.965 61.4468 524.477 60.6308C525.989 59.7908 527.837 59.3708 530.021 59.3708C533.261 59.3948 535.757 60.2708 537.509 61.9988C539.261 63.7268 540.209 65.9828 540.353 68.7668C540.401 70.1108 540.425 71.2988 540.425 72.3308C540.425 73.3388 540.401 74.4908 540.353 75.7868C540.185 78.6188 539.249 80.9108 537.545 82.6628C535.841 84.3908 533.333 85.2668 530.021 85.2908ZM530.021 80.0708C531.197 80.0708 532.073 79.6868 532.649 78.9188C533.249 78.1268 533.573 77.0228 533.621 75.6068C533.669 74.9108 533.693 73.7948 533.693 72.2588C533.693 70.7228 533.669 69.6308 533.621 68.9828C533.573 67.6148 533.261 66.5348 532.685 65.7428C532.109 64.9508 531.221 64.5428 530.021 64.5188C528.845 64.5428 527.957 64.9508 527.357 65.7428C526.781 66.5348 526.469 67.6148 526.421 68.9828C526.397 69.6308 526.385 70.7228 526.385 72.2588C526.385 73.7948 526.397 74.9108 526.421 75.6068C526.541 78.5828 527.741 80.0708 530.021 80.0708ZM559.53 85.2908C556.218 85.2668 553.71 84.3908 552.006 82.6628C550.302 80.9108 549.378 78.6188 549.234 75.7868C549.186 74.4908 549.162 73.3388 549.162 72.3308C549.162 71.2988 549.186 70.1108 549.234 68.7668C549.33 66.9668 549.762 65.3708 550.53 63.9788C551.322 62.5628 552.474 61.4468 553.986 60.6308C555.498 59.7908 557.346 59.3708 559.53 59.3708C562.77 59.3948 565.266 60.2708 567.018 61.9988C568.77 63.7268 569.718 65.9828 569.862 68.7668C569.91 70.1108 569.934 71.2988 569.934 72.3308C569.934 73.3388 569.91 74.4908 569.862 75.7868C569.694 78.6188 568.758 80.9108 567.054 82.6628C565.35 84.3908 562.842 85.2668 559.53 85.2908ZM559.53 80.0708C560.706 80.0708 561.582 79.6868 562.158 78.9188C562.758 78.1268 563.082 77.0228 563.13 75.6068C563.178 74.9108 563.202 73.7948 563.202 72.2588C563.202 70.7228 563.178 69.6308 563.13 68.9828C563.082 67.6148 562.77 66.5348 562.194 65.7428C561.618 64.9508 560.73 64.5428 559.53 64.5188C558.354 64.5428 557.466 64.9508 556.866 65.7428C556.29 66.5348 555.978 67.6148 555.93 68.9828C555.906 69.6308 555.894 70.7228 555.894 72.2588C555.894 73.7948 555.906 74.9108 555.93 75.6068C556.05 78.5828 557.25 80.0708 559.53 80.0708ZM586.303 83.7428C586.063 83.7428 585.847 83.6588 585.655 83.4908C585.487 83.2988 585.403 83.0828 585.403 82.8428V76.2548H578.995C578.731 76.2548 578.503 76.1708 578.311 76.0028C578.143 75.8348 578.059 75.6188 578.059 75.3548V72.7268C578.059 72.4628 578.143 72.2468 578.311 72.0788C578.503 71.8868 578.731 71.7908 578.995 71.7908H585.403V65.4188C585.403 65.1548 585.487 64.9388 585.655 64.7708C585.847 64.6028 586.063 64.5188 586.303 64.5188H589.255C589.519 64.5188 589.735 64.6028 589.903 64.7708C590.071 64.9388 590.155 65.1548 590.155 65.4188V71.7908H596.527C596.791 71.7908 597.007 71.8868 597.175 72.0788C597.343 72.2468 597.427 72.4628 597.427 72.7268V75.3548C597.427 75.6188 597.343 75.8348 597.175 76.0028C597.007 76.1708 596.791 76.2548 596.527 76.2548H590.155V82.8428C590.155 83.0828 590.071 83.2988 589.903 83.4908C589.735 83.6588 589.519 83.7428 589.255 83.7428H586.303Z" fill="#EC5863"/>
<path d="M431.288 108.931C431.215 108.931 431.149 108.905 431.09 108.854C431.039 108.795 431.013 108.729 431.013 108.656V101.506C431.013 101.425 431.039 101.359 431.09 101.308C431.149 101.256 431.215 101.231 431.288 101.231H432.476C432.652 101.231 432.78 101.311 432.861 101.473L434.797 104.938L436.733 101.473C436.814 101.311 436.942 101.231 437.118 101.231H438.295C438.376 101.231 438.442 101.256 438.493 101.308C438.552 101.359 438.581 101.425 438.581 101.506V108.656C438.581 108.736 438.552 108.802 438.493 108.854C438.442 108.905 438.376 108.931 438.295 108.931H436.986C436.905 108.931 436.836 108.905 436.777 108.854C436.726 108.802 436.7 108.736 436.7 108.656V104.531L435.468 106.83C435.373 106.998 435.244 107.083 435.083 107.083H434.511C434.416 107.083 434.339 107.061 434.28 107.017C434.221 106.973 434.17 106.91 434.126 106.83L432.883 104.531V108.656C432.883 108.729 432.857 108.795 432.806 108.854C432.755 108.905 432.689 108.931 432.608 108.931H431.288ZM444.467 108.931C444.394 108.931 444.328 108.905 444.269 108.854C444.218 108.795 444.192 108.729 444.192 108.656V101.506C444.192 101.425 444.218 101.359 444.269 101.308C444.328 101.256 444.394 101.231 444.467 101.231H449.604C449.685 101.231 449.751 101.256 449.802 101.308C449.854 101.359 449.879 101.425 449.879 101.506V102.54C449.879 102.613 449.854 102.679 449.802 102.738C449.751 102.789 449.685 102.815 449.604 102.815H446.095V104.3H449.362C449.443 104.3 449.509 104.329 449.56 104.388C449.612 104.439 449.637 104.505 449.637 104.586V105.543C449.637 105.616 449.612 105.682 449.56 105.741C449.509 105.792 449.443 105.818 449.362 105.818H446.095V107.347H449.692C449.773 107.347 449.839 107.372 449.89 107.424C449.942 107.475 449.967 107.541 449.967 107.622V108.656C449.967 108.729 449.942 108.795 449.89 108.854C449.839 108.905 449.773 108.931 449.692 108.931H444.467ZM455.563 108.931C455.489 108.931 455.423 108.905 455.365 108.854C455.313 108.795 455.288 108.729 455.288 108.656V101.506C455.288 101.425 455.313 101.359 455.365 101.308C455.423 101.256 455.489 101.231 455.563 101.231H458.423C459.501 101.231 460.337 101.487 460.931 102.001C461.525 102.514 461.836 103.258 461.866 104.234C461.873 104.446 461.877 104.729 461.877 105.081C461.877 105.433 461.873 105.711 461.866 105.917C461.829 106.936 461.525 107.695 460.953 108.194C460.388 108.685 459.563 108.931 458.478 108.931H455.563ZM458.423 107.347C458.907 107.347 459.262 107.233 459.49 107.006C459.717 106.771 459.838 106.401 459.853 105.895C459.867 105.682 459.875 105.407 459.875 105.07C459.875 104.732 459.867 104.461 459.853 104.256C459.838 103.764 459.706 103.401 459.457 103.167C459.215 102.932 458.852 102.815 458.368 102.815H457.268V107.347H458.423ZM467.507 108.931C467.433 108.931 467.367 108.905 467.309 108.854C467.257 108.795 467.232 108.729 467.232 108.656V101.506C467.232 101.425 467.257 101.359 467.309 101.308C467.367 101.256 467.433 101.231 467.507 101.231H468.981C469.061 101.231 469.127 101.256 469.179 101.308C469.237 101.359 469.267 101.425 469.267 101.506V108.656C469.267 108.736 469.237 108.802 469.179 108.854C469.127 108.905 469.061 108.931 468.981 108.931H467.507ZM478.025 109.041C476.976 109.041 476.155 108.788 475.561 108.282C474.974 107.768 474.663 107.028 474.626 106.06C474.619 105.862 474.615 105.539 474.615 105.092C474.615 104.637 474.619 104.307 474.626 104.102C474.663 103.148 474.982 102.415 475.583 101.902C476.184 101.381 476.998 101.121 478.025 101.121C478.67 101.121 479.25 101.231 479.763 101.451C480.276 101.663 480.68 101.971 480.973 102.375C481.274 102.771 481.428 103.236 481.435 103.772V103.794C481.435 103.852 481.409 103.904 481.358 103.948C481.314 103.984 481.263 104.003 481.204 104.003H479.719C479.624 104.003 479.55 103.984 479.499 103.948C479.448 103.904 479.404 103.827 479.367 103.717C479.264 103.343 479.103 103.082 478.883 102.936C478.663 102.782 478.373 102.705 478.014 102.705C477.149 102.705 476.701 103.189 476.672 104.157C476.665 104.355 476.661 104.659 476.661 105.07C476.661 105.48 476.665 105.792 476.672 106.005C476.701 106.973 477.149 107.457 478.014 107.457C478.373 107.457 478.667 107.38 478.894 107.226C479.121 107.064 479.279 106.804 479.367 106.445C479.396 106.335 479.437 106.261 479.488 106.225C479.539 106.181 479.616 106.159 479.719 106.159H481.204C481.27 106.159 481.325 106.181 481.369 106.225C481.42 106.269 481.442 106.324 481.435 106.39C481.428 106.925 481.274 107.394 480.973 107.798C480.68 108.194 480.276 108.502 479.763 108.722C479.25 108.934 478.67 109.041 478.025 109.041ZM486.125 108.931C486.066 108.931 486.011 108.909 485.96 108.865C485.916 108.813 485.894 108.758 485.894 108.7C485.894 108.656 485.898 108.623 485.905 108.601L488.49 101.539C488.512 101.451 488.56 101.377 488.633 101.319C488.706 101.26 488.802 101.231 488.919 101.231H490.547C490.664 101.231 490.76 101.26 490.833 101.319C490.906 101.377 490.954 101.451 490.976 101.539L493.55 108.601L493.572 108.7C493.572 108.758 493.546 108.813 493.495 108.865C493.451 108.909 493.396 108.931 493.33 108.931H491.977C491.801 108.931 491.684 108.854 491.625 108.7L491.196 107.578H488.259L487.841 108.7C487.782 108.854 487.661 108.931 487.478 108.931H486.125ZM490.756 105.994L489.733 103.09L488.71 105.994H490.756ZM498.784 108.931C498.711 108.931 498.645 108.905 498.586 108.854C498.535 108.795 498.509 108.729 498.509 108.656V101.506C498.509 101.425 498.535 101.359 498.586 101.308C498.645 101.256 498.711 101.231 498.784 101.231H500.236C500.317 101.231 500.383 101.256 500.434 101.308C500.485 101.359 500.511 101.425 500.511 101.506V107.27H503.844C503.925 107.27 503.991 107.299 504.042 107.358C504.093 107.409 504.119 107.475 504.119 107.556V108.656C504.119 108.729 504.093 108.795 504.042 108.854C503.991 108.905 503.925 108.931 503.844 108.931H498.784ZM515.572 108.931C515.498 108.931 515.432 108.905 515.374 108.854C515.322 108.795 515.297 108.729 515.297 108.656V101.506C515.297 101.425 515.322 101.359 515.374 101.308C515.432 101.256 515.498 101.231 515.572 101.231H520.709C520.789 101.231 520.855 101.256 520.907 101.308C520.958 101.359 520.984 101.425 520.984 101.506V102.54C520.984 102.613 520.958 102.679 520.907 102.738C520.855 102.789 520.789 102.815 520.709 102.815H517.2V104.3H520.467C520.547 104.3 520.613 104.329 520.665 104.388C520.716 104.439 520.742 104.505 520.742 104.586V105.543C520.742 105.616 520.716 105.682 520.665 105.741C520.613 105.792 520.547 105.818 520.467 105.818H517.2V107.347H520.797C520.877 107.347 520.943 107.372 520.995 107.424C521.046 107.475 521.072 107.541 521.072 107.622V108.656C521.072 108.729 521.046 108.795 520.995 108.854C520.943 108.905 520.877 108.931 520.797 108.931H515.572ZM525.985 108.931C525.919 108.931 525.86 108.909 525.809 108.865C525.765 108.813 525.743 108.758 525.743 108.7C525.743 108.648 525.758 108.604 525.787 108.568L528.185 105.004L525.963 101.594C525.941 101.55 525.93 101.506 525.93 101.462C525.93 101.403 525.952 101.352 525.996 101.308C526.04 101.256 526.095 101.231 526.161 101.231H527.756C527.844 101.231 527.917 101.253 527.976 101.297C528.035 101.341 528.09 101.396 528.141 101.462L529.45 103.453L530.781 101.462C530.876 101.308 531.005 101.231 531.166 101.231H532.684C532.743 101.231 532.794 101.256 532.838 101.308C532.889 101.352 532.915 101.403 532.915 101.462C532.915 101.513 532.9 101.557 532.871 101.594L530.638 104.993L533.058 108.568C533.08 108.597 533.091 108.641 533.091 108.7C533.091 108.758 533.069 108.813 533.025 108.865C532.981 108.909 532.926 108.931 532.86 108.931H531.221C531.067 108.931 530.939 108.857 530.836 108.711L529.384 106.599L527.943 108.711C527.862 108.857 527.738 108.931 527.569 108.931H525.985ZM538.332 108.931C538.258 108.931 538.192 108.905 538.134 108.854C538.082 108.795 538.057 108.729 538.057 108.656V101.506C538.057 101.425 538.082 101.359 538.134 101.308C538.192 101.256 538.258 101.231 538.332 101.231H541.412C542.35 101.231 543.087 101.447 543.623 101.88C544.165 102.312 544.437 102.943 544.437 103.772C544.437 104.593 544.169 105.213 543.634 105.631C543.098 106.041 542.358 106.247 541.412 106.247H540.103V108.656C540.103 108.736 540.073 108.802 540.015 108.854C539.963 108.905 539.897 108.931 539.817 108.931H538.332ZM541.357 104.729C541.679 104.729 541.932 104.648 542.116 104.487C542.299 104.318 542.391 104.072 542.391 103.75C542.391 103.449 542.303 103.211 542.127 103.035C541.958 102.851 541.701 102.76 541.357 102.76H540.07V104.729H541.357ZM549.835 108.931C549.762 108.931 549.696 108.905 549.637 108.854C549.586 108.795 549.56 108.729 549.56 108.656V101.506C549.56 101.425 549.586 101.359 549.637 101.308C549.696 101.256 549.762 101.231 549.835 101.231H554.972C555.053 101.231 555.119 101.256 555.17 101.308C555.222 101.359 555.247 101.425 555.247 101.506V102.54C555.247 102.613 555.222 102.679 555.17 102.738C555.119 102.789 555.053 102.815 554.972 102.815H551.463V104.3H554.73C554.811 104.3 554.877 104.329 554.928 104.388C554.98 104.439 555.005 104.505 555.005 104.586V105.543C555.005 105.616 554.98 105.682 554.928 105.741C554.877 105.792 554.811 105.818 554.73 105.818H551.463V107.347H555.06C555.141 107.347 555.207 107.372 555.258 107.424C555.31 107.475 555.335 107.541 555.335 107.622V108.656C555.335 108.729 555.31 108.795 555.258 108.854C555.207 108.905 555.141 108.931 555.06 108.931H549.835ZM560.931 108.931C560.857 108.931 560.791 108.905 560.733 108.854C560.681 108.795 560.656 108.729 560.656 108.656V101.506C560.656 101.425 560.681 101.359 560.733 101.308C560.791 101.256 560.857 101.231 560.931 101.231H563.923C564.883 101.231 565.631 101.451 566.167 101.891C566.709 102.323 566.981 102.939 566.981 103.739C566.981 104.252 566.86 104.688 566.618 105.048C566.376 105.407 566.042 105.682 565.617 105.873L567.124 108.579C567.146 108.623 567.157 108.663 567.157 108.7C567.157 108.758 567.131 108.813 567.08 108.865C567.036 108.909 566.984 108.931 566.926 108.931H565.463C565.25 108.931 565.1 108.832 565.012 108.634L563.758 106.214H562.636V108.656C562.636 108.736 562.606 108.802 562.548 108.854C562.496 108.905 562.43 108.931 562.35 108.931H560.931ZM563.901 104.652C564.238 104.652 564.495 104.571 564.671 104.41C564.847 104.241 564.935 104.01 564.935 103.717C564.935 103.423 564.847 103.192 564.671 103.024C564.502 102.848 564.245 102.76 563.901 102.76H562.636V104.652H563.901ZM574.225 108.931C574.152 108.931 574.086 108.905 574.027 108.854C573.976 108.795 573.95 108.729 573.95 108.656V102.958H571.992C571.919 102.958 571.853 102.932 571.794 102.881C571.743 102.822 571.717 102.756 571.717 102.683V101.506C571.717 101.425 571.743 101.359 571.794 101.308C571.853 101.256 571.919 101.231 571.992 101.231H577.91C577.991 101.231 578.057 101.256 578.108 101.308C578.159 101.359 578.185 101.425 578.185 101.506V102.683C578.185 102.763 578.159 102.829 578.108 102.881C578.057 102.932 577.991 102.958 577.91 102.958H575.952V108.656C575.952 108.729 575.926 108.795 575.875 108.854C575.824 108.905 575.758 108.931 575.677 108.931H574.225ZM586.104 109.041C585.407 109.041 584.81 108.938 584.311 108.733C583.812 108.527 583.435 108.26 583.178 107.93C582.929 107.592 582.797 107.226 582.782 106.83C582.782 106.771 582.804 106.72 582.848 106.676C582.899 106.624 582.958 106.599 583.024 106.599H584.41C584.498 106.599 584.568 106.617 584.619 106.654C584.678 106.683 584.736 106.731 584.795 106.797C584.89 106.987 585.044 107.145 585.257 107.27C585.47 107.394 585.752 107.457 586.104 107.457C586.522 107.457 586.841 107.391 587.061 107.259C587.281 107.127 587.391 106.947 587.391 106.72C587.391 106.558 587.332 106.426 587.215 106.324C587.105 106.221 586.929 106.129 586.687 106.049C586.445 105.968 586.086 105.876 585.609 105.774C584.729 105.59 584.069 105.323 583.629 104.971C583.196 104.611 582.98 104.102 582.98 103.442C582.98 102.994 583.105 102.595 583.354 102.243C583.603 101.891 583.959 101.616 584.421 101.418C584.883 101.22 585.422 101.121 586.038 101.121C586.676 101.121 587.23 101.231 587.699 101.451C588.168 101.671 588.524 101.949 588.766 102.287C589.015 102.617 589.147 102.943 589.162 103.266C589.162 103.332 589.14 103.387 589.096 103.431C589.052 103.475 588.997 103.497 588.931 103.497H587.479C587.391 103.497 587.318 103.482 587.259 103.453C587.208 103.423 587.16 103.376 587.116 103.31C587.072 103.141 586.951 102.998 586.753 102.881C586.562 102.763 586.324 102.705 586.038 102.705C585.708 102.705 585.455 102.763 585.279 102.881C585.103 102.998 585.015 103.17 585.015 103.398C585.015 103.552 585.063 103.68 585.158 103.783C585.261 103.885 585.422 103.981 585.642 104.069C585.869 104.149 586.192 104.234 586.61 104.322C587.292 104.446 587.835 104.604 588.238 104.795C588.649 104.978 588.949 105.22 589.14 105.521C589.331 105.814 589.426 106.184 589.426 106.632C589.426 107.123 589.283 107.552 588.997 107.919C588.718 108.278 588.326 108.557 587.82 108.755C587.321 108.945 586.749 109.041 586.104 109.041Z" fill="black"/>
<defs>
<filter id="filter0_d_4_134" x="0" y="0.930786" width="702" height="165" filterUnits="userSpaceOnUse" color-interpolation-filters="sRGB">
<feFlood flood-opacity="0" result="BackgroundImageFix"/>
<feColorMatrix in="SourceAlpha" type="matrix" values="0 0 0 0 0 0 0 0 0 0 0 0 0 0 0 0 0 0 127 0" result="hardAlpha"/>
<feOffset dy="2"/>
<feGaussianBlur stdDeviation="12"/>
<feColorMatrix type="matrix" values="0 0 0 0 0.345098 0 0 0 0 0.494118 0 0 0 0 0.92549 0 0 0 0.15 0"/>
<feBlend mode="normal" in2="BackgroundImageFix" result="effect1_dropShadow_4_134"/>
<feBlend mode="normal" in="SourceGraphic" in2="effect1_dropShadow_4_134" result="shape"/>
</filter>
</defs>
</svg>
